<svg xmlns="http://www.w3.org/2000/svg" width="322" height="329" fill="none" viewBox="0 0 322 329">
  <path fill="#fff" d="M103.191 98.416l.809.34-2.191 3.66-.809-.34 2.191-3.66z"/>
  <path fill="#FF6584" d="M110.234 107.14c-7.688-7.632-20.152-7.632-27.84 0l-.005.006c-7.718-7.437-20.02-7.347-27.625.203-7.605 7.55-7.696 19.763-.205 27.424l-.005.005 27.84 27.638 27.84-27.638A19.471 19.471 0 00116 120.959a19.471 19.471 0 00-5.766-13.819z"/>
  <path fill="#FFD3E1" d="M287 189.024c0 12.15-7.387 16.392-16.5 16.392s-16.5-4.242-16.5-16.392c0-12.151 16.5-27.608 16.5-27.608s16.5 15.457 16.5 27.608z"/>
  <path fill="#3F3D56" d="M269.883 193.922l7.117-12.79-7.091 11.168.077-4.648 4.906-9.254-4.886 8.024.139-8.361 5.253-7.367-5.231 6.052.086-15.33-.543 20.295.045-.837-5.341-8.03 5.255 9.637-.498 9.337-.014-.248-6.157-8.45 6.138 9.326-.062 1.167-.012.018.006.096-1.263 23.689h1.687l.202-12.236 6.123-9.302-6.107 8.382.171-10.338z"/>
  <path fill="#ECBCE5" d="M193 217.416H48.54a2.96 2.96 0 01-.54-.043l68.323-118.525a4.781 4.781 0 018.327 0l45.854 79.54 2.196 3.806 20.3 35.222z"/>
  <path fill="#000" d="M144 217.416l24.054-35.197 1.731-2.535.865-1.268 2.183 3.803L193 217.416h-49z" opacity=".2"/>
  <path fill="#EFEFEF" d="M273 217.416H149l24.029-35.194 1.729-2.536 31.312-45.865c2.052-3.006 6.991-3.193 9.404-.567.162.179.313.369.451.567L273 217.416z"/>
  <path fill="#3F3D56" d="M30 216.416h262v1H30z"/>
  <path fill="#5DC02A" d="M153.086 209.564c4.934-2.145 8.447-5.294 7.847-7.032-.6-1.739-5.086-1.409-10.019.736-4.934 2.146-8.447 5.294-7.847 7.033.6 1.738 5.086 1.408 10.019-.737zM125 223.416h5v11h-5zM136 223.416h6v11h-6z"/>
  <path fill="#C4E373" d="M133 228.416c10.493 0 19-8.506 19-19 0-10.493-8.507-19-19-19s-19 8.507-19 19c0 10.494 8.507 19 19 19z"/>
  <path fill="#5DC02A" d="M129.5 236.416c2.485 0 4.5-.895 4.5-2 0-1.104-2.015-2-4.5-2s-4.5.896-4.5 2c0 1.105 2.015 2 4.5 2zM141 236.416c2.761 0 5-.895 5-2 0-1.104-2.239-2-5-2s-5 .896-5 2c0 1.105 2.239 2 5 2z"/>
  <path fill="#fff" d="M133.5 211.416c3.59 0 6.5-3.134 6.5-7s-2.91-7-6.5-7-6.5 3.134-6.5 7 2.91 7 6.5 7z"/>
  <path fill="#3F3D56" d="M133 206.416a2 2 0 10.001-3.999 2 2 0 00-.001 3.999z"/>
  <path fill="#32CFF7" d="M114.281 191.414c-1.533-6.921 3.367-13.914 10.946-15.62 7.578-1.705 14.964 2.522 16.497 9.443 1.533 6.92-3.489 9.473-11.067 11.179-7.579 1.705-14.843 1.918-16.376-5.002z"/>
  <path fill="#5DC02A" d="M115.746 214.162c3.951-3.951 6.148-8.159 4.908-9.399-1.241-1.241-5.449.957-9.4 4.907-3.951 3.951-6.148 8.16-4.908 9.4 1.241 1.24 5.449-.957 9.4-4.908z"/>
  <path fill="#fff" d="M124 216.77c0 1.898 4.695 5.646 9.905 5.646 5.21 0 10.095-5.344 10.095-7.242 0-1.898-4.885.368-10.095.368-5.21 0-9.905-.67-9.905 1.228z"/>
  <path fill="#5DC02A" d="M176.93 210.301c.633-1.739-3.075-4.887-8.283-7.033-5.208-2.145-9.943-2.475-10.577-.736-.633 1.738 3.075 4.887 8.283 7.032 5.208 2.145 9.943 2.475 10.577.737zM195 234.416h-6v-11h6zM184 234.416h-5v-11h5z"/>
  <path fill="#C4E373" d="M187 228.416c10.493 0 19-8.506 19-19 0-10.493-8.507-19-19-19s-19 8.507-19 19c0 10.494 8.507 19 19 19z"/>
  <path fill="#5DC02A" d="M190.5 236.416c2.485 0 4.5-.895 4.5-2 0-1.104-2.015-2-4.5-2s-4.5.896-4.5 2c0 1.105 2.015 2 4.5 2zM179.5 236.416c2.485 0 4.5-.895 4.5-2 0-1.104-2.015-2-4.5-2s-4.5.896-4.5 2c0 1.105 2.015 2 4.5 2z"/>
  <path fill="#fff" d="M186.5 211.416c3.59 0 6.5-3.134 6.5-7s-2.91-7-6.5-7-6.5 3.134-6.5 7 2.91 7 6.5 7z"/>
  <path fill="#3F3D56" d="M186 206.416a2 2 0 10.001-3.999 2 2 0 00-.001 3.999z"/>
  <path fill="#32CFF7" d="M205.719 191.414c1.533-6.921-3.367-13.914-10.946-15.62-7.578-1.705-14.964 2.522-16.497 9.443-1.533 6.92 3.489 9.473 11.067 11.179 7.579 1.705 14.843 1.918 16.376-5.002z"/>
  <path fill="#5DC02A" d="M212.677 219.07c1.157-1.24-.893-5.449-4.581-9.4-3.687-3.95-7.615-6.148-8.773-4.907-1.157 1.24.893 5.448 4.581 9.399 3.687 3.951 7.615 6.148 8.773 4.908z"/>
  <path fill="#fff" d="M196 216.77c0 1.898-4.695 5.646-9.905 5.646-5.21 0-10.095-5.344-10.095-7.242 0-1.898 4.885.368 10.095.368 5.21 0 9.905-.67 9.905 1.228z"/>
  <path fill="#3F3D56" fill-rule="evenodd" d="M0 328.364V0h321.678v328.364H0zm30.46-82.544h261.502V28.23H30.459v217.59z" clip-rule="evenodd"/>
  <path fill="#fff" d="M143.96 298.216c-.192.48-.528.816-.912.96-.48.192-.912.288-1.344.24v-2.304c-.048-.672.096-1.44.384-2.304.048 0 .096 0 .192-.048s.096-.144.048-.288c-.144 0-.192-.096-.144-.384v-.624c0-.144.096-.336.192-.528.096-.144.096-.48.048-1.056a8.6 8.6 0 01.144-2.736c.144-.816.288-1.632.384-2.496v-1.152c0-.384 0-.768.096-1.152 0-.24 0-.48.096-.72.048-.192.144-.48.24-.768-.576.192-1.104.336-1.68.48-.624.192-1.2.384-1.776.576-.576.192-1.104.384-1.584.528-.528.192-.912.336-1.2.432-.096.096-.192.192-.384.24-.24.096-.432.144-.528.144-.528 0-.864-.048-.96-.24a.532.532 0 01-.24-.48c0-.24.096-.336.288-.336.144.048.288 0 .432-.144.048 0 .096-.096.192-.24.048-.096.144-.144.288-.24.144-.048.48-.192 1.056-.384.528-.192 1.152-.384 1.92-.672a39.11 39.11 0 002.256-.72c.768-.24 1.44-.432 2.112-.624 0-.144.048-.288.096-.432 0-.096.048-.24.048-.336.096-.96.24-1.92.384-2.88.096-.912.288-1.68.48-2.352 0-.144.048-.24.048-.336v-.288l.48-.336c0-.144.048-.336.048-.528-.048-.144.096-.384.384-.768.096-.048.24-.096.336-.192.096 0 .24-.048.432-.096.192.096.336.144.48.24.096.096.144.144.24.144.096.192.24.384.336.672l.288 1.008.144.336c-.048.192-.096.288-.144.336-.096.096-.096.192-.096.336 0 .192 0 .336.096.48.048.192-.048.48-.288.816.288.384.384.816.192 1.392a13.17 13.17 0 00-.432 1.872c-.048.384-.096.72-.096 1.008-.048.336-.048.672-.048 1.008-.096.672-.144 1.152-.144 1.344-.096.24-.096.432-.096.624-.048.192-.048.432 0 .816 0 .432-.048.816-.192 1.152-.192.288-.24.624-.24 1.008 0 .432-.096 1.056-.192 1.872a2.232 2.232 0 01-.144.432c-.096.192-.192.336-.192.48l.192.432c0 .576-.048 1.248-.144 2.112-.192.864-.288 1.728-.384 2.592l-.144.48-.096.192.096.144a13.69 13.69 0 01-.576 1.392c-.288.432-.528.72-.768.864zm-17.328-14.592c-.048.192-.048.288-.048.336-.048.096 0 .144.096.144.24 0 .48 0 .768-.048h.72l.432.096c.144 0 .24 0 .336-.048h.144c.192 0 .432-.048.672-.048h.576c.672 0 1.152.192 1.44.48.24.336.384.816.432 1.392 0 .096 0 .144.048.192v.288c-.048.144-.096.288-.096.384-.096.192-.144.336-.192.432l-.528.912-.48 1.008-1.104 2.112-.288.24-.048.384-.96 1.776-.384.912-.048.336c.24.096.576.096.96 0 .192 0 .48-.048.864-.144.288-.048.624-.144.96-.24.432-.096.816-.24 1.104-.336.288-.048.48-.096.672-.192.096 0 .288-.096.576-.24.288-.096.576-.24.96-.528a.663.663 0 01.192-.144s.096-.048.24-.048.24.048.288.048v.24c0 .048 0 .096.048.096 0 .048-.048.096-.048.144-.096.192-.192.336-.288.48-.192.192-.336.384-.432.48-.144.144-.24.24-.336.24-.096.048-.192.096-.24.144-.192.144-.576.336-1.152.528l-.288.144-.336.096a.766.766 0 01-.384.144c-.144.048-.288.096-.384.144-.096.048-.144.096-.192.096-.096.096-.192.144-.24.144-.096.048-.144.048-.24 0-.144 0-.24.048-.288.048-.24.096-.432.096-.576.096-.192.048-.384.096-.528.096-.432.096-.816.096-1.2.096H126.2c-.336 0-.48-.288-.48-.96 0-.096 0-.192-.048-.288-.096-.096-.096-.192-.048-.288.048-.144.096-.288.144-.48 0-.144.048-.288.144-.48.336-.72.72-1.44 1.104-2.16.336-.672.72-1.344 1.2-2.112l.288-.24.144-.432c.192-.336.432-.72.672-1.104a6.8 6.8 0 01.672-1.104c.048-.048.096-.144.144-.336v-.336c0-.048-.048-.096-.048-.096-.048 0-.096 0-.144-.096-.096-.048-.144-.096-.192-.144-.096 0-.24-.048-.432-.048h-.768c-.288.048-.576.048-.816.048h-.768c-.288 0-.528.048-.72.048l-.768.096c-.144.048-.384.048-.72.048-.48 0-.864-.096-1.248-.288l.048-.144c-.096 0-.144-.144-.192-.336-.048-.096-.096-.144-.096-.24 0-.144 0-.288.096-.384 0-.048.048-.144.144-.288l.432-1.104.144-.144.144-.624.672-1.92.336-.912.144-.192.048-.336.432-1.104c.192-.48.192-.816 0-1.008a1.926 1.926 0 00-.72-.144c-.672.096-1.248.144-1.776.192-.576.096-1.2.24-1.824.336-.192.048-.288.048-.288-.048-.048 0-.096-.048-.192-.096-.384-.096-.48-.24-.384-.48.048-.192.096-.288.192-.384.096-.096.336-.192.624-.288l.336-.192c.24-.048.528-.096.816-.192.24-.048.576-.096 1.008-.192.48-.048.96-.096 1.536-.144.48 0 1.008-.048 1.488-.048.096 0 .24.048.336.048.048.048.144.048.288.048.288 0 .48.096.624.192a.663.663 0 00.144.192c0 .096.144.192.336.288.048.096.096.144.096.24v.432c0 .144.048.192.144.144.096 0 .144.048.144.192 0 .576-.144 1.152-.336 1.728l-.336.336.192.144c-.096.288-.192.528-.288.768a5.72 5.72 0 00-.384.96l-.576 1.488a8.219 8.219 0 00-.432 1.056zm30.979 3.744c.096.192.144.384.24.576 0 .24.048.384.144.48.048.096.144.288.288.528.096.288.192.432.24.48.192.48.384.768.576.912.144.192.432.384.912.624.048.048.144.048.24.048a.663.663 0 00.192.144c.048.288.048.48 0 .48-.096.048-.144.144-.192.288-.096.096-.144.096-.192.096-.096.048-.144.096-.24.096a8.944 8.944 0 01-1.296-.24c-.48-.048-.816-.192-1.056-.48a4.382 4.382 0 00-.624-.384c-.288-.048-.528-.24-.72-.624-.096-.096-.144-.24-.144-.432a.492.492 0 00-.24-.288c-.144 0-.24-.096-.24-.384-.048-.192-.192-.432-.384-.72a1.827 1.827 0 01-.432-.624c-.144-.192-.24-.48-.288-.864-.384-.816-.624-1.632-.816-2.496a19.505 19.505 0 01-.576-2.736c0-.096-.048-.192-.096-.288-.096 0-.144-.096-.096-.192 0-.096.048-.192.144-.24.048 0 .096-.048.144-.144-.192-.384-.288-.864-.288-1.488 0-.576.048-1.152.144-1.728.048-.528.096-.864.144-1.008 0-.096.048-.288.144-.576 0-.24.048-.48.048-.672.288-.288.528-.528.768-.72.192-.144.384-.192.672-.144.384.096.672.288.912.672.192.432.288.72.336.864-.048.24-.048.384.048.432v.288l-.096.192v.192c0 .144.048.288.048.432-.048.192-.096.336-.096.48-.048.192 0 .288.096.384.048.096.048.24.048.384v.192c-.048.096-.048.144-.048.192-.048.096-.048.192-.048.24l.24.624-.048.72c.048.336.096.624.144.912 0 .288.048.624.144.912.528-.096 1.248-.192 2.112-.336.816-.096 1.728-.144 2.688-.24.192 0 .384.048.528.048 0-.048.048-.096.048-.192 0 0 0-.048.048-.144l-.096-.288c.288-.432.432-.768.432-1.008 0-.096.048-.192.096-.288 0-.048-.096-.144-.24-.336 0-.096.048-.192.144-.24.048 0 .096-.096.096-.192 0-.192.048-.528.144-.96 0-.384.096-.768.192-1.152.048-.384.144-.72.288-1.056.096-.288.192-.432.336-.528.096-.048.24-.144.432-.24.096-.048.288-.048.528-.048.144 0 .24.192.336.48.048.336.096.672.096 1.056 0 .432-.048.864-.048 1.248-.048.432-.048.768-.048.96-.048.336-.096.576-.192.672a.766.766 0 00-.144.384c-.048.24-.048.432.048.528.048.192.048.384.048.576a9.695 9.695 0 00-.144 1.584 21.394 21.394 0 00-.192 1.632 3.34 3.34 0 00-.096.768 3.654 3.654 0 00-.144 1.008 4.28 4.28 0 00-.144 1.056c-.048.384-.096.72-.096.96-.048.336-.144.624-.336.816-.096.192-.192.336-.384.432-.24.192-.624.24-1.2.144-.192 0-.288-.192-.336-.48-.096-.288-.096-.624-.096-1.056-.048-.72 0-1.488.096-2.304l.288-2.256c-.768.096-1.536.144-2.352.24-.864.144-1.68.288-2.4.384.24 1.2.528 2.208.864 2.976zm17.904-16.176c.144.288.288.432.48.48.144.096.192.288.192.576 0 .192.048.432.192.72.096.336.144.576.096.768 0 .24 0 .384-.096.384-.144.096-.192.192-.192.288 0 0 .048.048.096.048.048.096.096.144.096.144a1.275 1.275 0 00-.048.72c0 .24-.048.528-.096.864l.144.768-.192 1.344c-.048.384-.048.672-.048.768-.048.192-.048.288-.048.336-.048.096-.096.192-.096.288a1.284 1.284 0 00-.096.528v.576c0 .192-.048.336-.048.432-.096.192-.144.288-.192.288-.096.144-.144.192-.048.144 0 0 .048.192.048.48 0 .096-.048.192-.048.24-.048.048-.048.096-.048.144 0 .048-.048.096-.048.096l-.336 3.552c-.096.432-.24.768-.384 1.008a2.156 2.156 0 00-.336.864c-.144.576-.24.96-.24 1.152-.096.288-.144.576-.24.864l-.384.288c-.288.192-.336.384-.24.48 0 .24-.048.48-.192.672-.192.288-.384.48-.576.576l-.768.384c-.384 0-.576-.048-.624-.144-.096-.048-.192-.192-.288-.432l-.096-.336c0-.192 0-.384-.096-.528-.096-.096-.144-.192-.144-.288v-.336c-.048 0-.048-.048-.048-.096-.048 0-.048-.048 0-.096 0 0 .048 0 .144-.096.096 0 .144-.096.24-.336 0-.192.048-.384.048-.672v-.768c0-.24 0-.432.048-.576v-.288c-.048 0-.096-.096-.096-.192l.288-.48.144-1.296c0-.096.096-.192.24-.288.096-.048.144-.096.144-.192s-.096-.24-.192-.432c-.144-.096-.144-.336 0-.72 0-.192.048-.336.24-.432.144 0 .24-.192.336-.576a.608.608 0 00-.192-.432c-.144-.096-.192-.192-.144-.288 0-.096.048-.192.192-.288.096-.048.192-.192.288-.48 0-.048 0-.096.048-.144l.144-.288c.048-.24.048-.528.048-.912a1.97 1.97 0 010-1.056c.096-.528.192-.96.288-1.344.048-.288.096-.624.192-.912.048-.288.096-.576.192-.912 0-.288.048-.72.096-1.248l.048-.384h.192c0-.096-.048-.192-.048-.24l-.048-.048c-.048-.24-.048-.384.048-.48.048-.048.096-.192.192-.432-.096-.24-.096-.48 0-.672 0-.096.096-.192.192-.192 0 0 .048.048.144.048 0-.144.048-.288.24-.384.144-.048.288-.096.48-.144 0 0 .144-.096.384-.288.192-.192.336-.24.432-.144zm-6.816 29.04a9.24 9.24 0 01.528-2.544c.24-.768.528-1.344.864-1.728.336-.432.864-.816 1.584-1.152.672-.288 1.248-.384 1.728-.384.096.048.288.144.48.336.144.192.288.432.48.72.096.288.24.624.384.96.096.384.144.672.144.96.096 1.296-.048 2.4-.336 3.264-.24.528-.48.96-.72 1.248-.288.24-.624.48-1.008.768-.192 0-.336 0-.48.048h-.624c-.192 0-.384.048-.672.144-.336.096-.576.144-.72.144-.192 0-.336-.096-.528-.288a2.796 2.796 0 01-.528-.72 3.925 3.925 0 01-.432-.912 1.385 1.385 0 01-.144-.864zm2.064-2.016c.192.048.288.24.384.528 0 .192-.048.336-.048.528a.695.695 0 00-.048.528c0 .096 0 .192.096.336 0 .192.096.336.192.48.096.192.24.336.432.432.144.096.336.144.624.144 0-.096.096-.288.288-.624.096-.288.24-.624.432-1.056.096-.384.24-.768.336-1.2.096-.384.096-.768.096-1.104 0-.576-.288-.912-.864-.912-.48 0-.912.192-1.2.528a3.502 3.502 0 00-.72 1.392zM186.32 279.4c0-.096-.048-.288-.048-.48-.096-.192-.096-.336-.096-.48.096 0 .144-.048.24-.096a.103.103 0 00.096-.096s-.048-.048-.096-.048c-.144-.096-.192-.144-.096-.144.048.096.096.048.096-.096 0-.096-.048-.24-.096-.384a.436.436 0 01-.144-.336c0-.192.048-.384.192-.576.096-.144.144-.336.144-.624v-.48c-.192-.096-.192-.144-.096-.144.048.048.096-.048.096-.336a22.127 22.127 0 011.2-3.552c.528-1.2 1.488-2.016 2.88-2.496.24-.048.48-.096.672-.096.192 0 .288.096.384.192.048.096-.048.144-.24.24-.24.096-.528.336-.912.624-.192.144-.336.384-.432.672a4.778 4.778 0 00-.432 1.248c.576-.144 1.056-.192 1.392-.144.192.096.336.144.432.24l.288.288a.578.578 0 00.24.24c.096.096.192.144.384.144.096 0 .288.096.48.192.144.192.288.384.48.672.144.336.288.72.384 1.152.096.48.144 1.056.144 1.68-.096 2.304-.912 4.128-2.496 5.424-.096.096-.192.144-.336.24a1.056 1.056 0 01-.624.192c-.288 0-.528.048-.672.144-.192.096-.432.144-.72.144-.576 0-1.008-.144-1.344-.432-.384-.24-.576-.432-.624-.528a5.749 5.749 0 01-.72-2.16zm12.096 9.552c.144.096.336.096.528.096.144.048.192.192.192.384 0 .096.048.192.24.336.096.192.144.384.144.528 0 .144-.048.192-.144.192-.096.048-.144.096-.144.192.048.048.096.048.144.048.048.096.096.096.096.096v.816c-.048.144-.048.288-.048.384l-.144.576.288.144c-.096.528-.096.912-.096 1.2-.048.288-.096.576-.096.864 0 .144.048.288.048.384 0 .288-.096.432-.192.432l-.096.048c.048 0 .096.096.096.24-.048.048-.096.096-.096.144-.048.048-.048.096-.048.144v.048a8.252 8.252 0 00-.144 1.632l-.144 1.92c-.048.24-.096.432-.144.528-.096.144-.192.288-.192.432-.048.24-.096.48-.096.72-.096.192-.192.432-.336.624-.096 0-.144.048-.144.096-.096.096-.144.144-.096.192.048.096 0 .288-.192.576a3.5 3.5 0 01-.528.432c-.096.048-.24.096-.48.096h-.48c-.288 0-.48-.048-.528-.096a1.004 1.004 0 00-.288-.192l-.144-.336c0-.096-.048-.144-.144-.192-.144-.096-.192-.144-.096-.192 0-.192-.048-.24-.096-.192-.096 0-.096-.048.096-.144.144-.048.192-.24.192-.576-.096-.384-.096-.576-.048-.768v-.144c-.048 0-.048-.048-.048-.144l.096-.288a1.97 1.97 0 00.336-1.056c0-.384-.048-.72-.144-1.104-.048-.048 0-.096.144-.144a.264.264 0 00.24-.144c0-.048-.048-.144-.144-.24-.096-.096-.144-.24-.096-.432 0-.144.096-.24.192-.288.048 0 .096-.048.144-.24 0-.096 0-.192-.096-.288-.096 0-.144-.048-.144-.144 0-.048.048-.096.144-.144.096 0 .144-.096.24-.288v-.24a.744.744 0 00.096-.576c-.096-.192-.096-.432-.096-.624 0-.288.048-.528.144-.816.048-.192.096-.432.192-.72 0-.192.048-.48.096-.816 0-.288.048-.624.048-1.056l.048-.192.192.048c0-.048-.048-.096-.096-.192-.048 0-.096-.048-.096-.048 0-.096 0-.192.096-.24.048 0 .096-.096.144-.288 0-.144 0-.288.048-.384 0-.096 0-.144.096-.144h.144c0-.048.048-.096.24-.192.096-.048.24-.144.432-.24 0 0 .096 0 .288-.096.144-.048.288-.048.48.048zm2.064-3.504c-.336.096-.576.144-.768.048-.192 0-.288 0-.336.048-.096.096-.144.048-.24-.144l-1.248.24c-.384.096-.768.192-1.2.288-.48.144-.864.24-1.248.336a6.53 6.53 0 01-.96.288c-.288.096-.384.192-.336.192-.144 0-.24-.048-.288-.144h-.24c-.24-.048-.432.048-.624.24-.192.24-.528.384-.96.384-.72 0-1.296.096-1.776.288-.528.192-.96.384-1.296.528l-4.176 1.2c-.096.048-.192.048-.288-.048-.096 0-.192-.048-.24-.048-.48 0-.816 0-1.056.096-.288.144-.576.192-.816.096-.096 0-.192-.048-.384-.192-.192-.096-.288-.24-.192-.48 0-.144.24-.384.72-.672.48-.24.96-.432 1.536-.624 2.592-.768 5.28-1.536 8.016-2.256 2.688-.672 5.328-1.2 7.92-1.68.24-.048.48-.048.672-.048.144.048.288.096.48.096.24.24.336.432.336.528-.096.192-.144.48-.144.864-.24.096-.528.288-.864.576zm-10.272 4.704c.144.096.288.096.48.096.096 0 .192.144.192.336-.048.096 0 .192.144.336.096.192.144.336.144.48 0 .144-.048.192-.096.192-.096.048-.144.096-.144.144h.096c.096 0 .144.048.144.144-.096.144-.096.24-.048.336 0 .096-.048.24-.048.384 0 .192-.048.48-.144.96l.24.144c-.096.48-.096.816-.096 1.056-.048.288-.096.576-.096.816 0 .096.048.24.048.336v.288c-.048.096-.096.192-.144.192-.144.048-.192.048-.096.048.048 0 .048.096.048.192-.048.096-.096.144-.096.144-.048.096-.048.144-.048.192-.048.48-.048.96-.048 1.536-.048.576-.096 1.152-.144 1.68-.096.288-.144.48-.24.576-.096.144-.144.24-.144.384 0 .48-.144.912-.336 1.248-.096 0-.144.048-.144.096-.096.048-.096.144-.096.24.048.096 0 .288-.144.528a1.743 1.743 0 01-.432.336 1.625 1.625 0 01-.384.144h-.432a3.164 3.164 0 01-.432-.096c-.096-.096-.144-.144-.24-.144l-.144-.384c0-.048 0-.096-.096-.144-.096-.096-.144-.144-.096-.192 0-.144-.048-.192-.096-.144-.096 0-.048-.048.096-.096.144-.096.192-.288.192-.576-.096-.336-.096-.576-.096-.72V301l.096-.288c.192-.288.288-.672.288-1.056 0-.336-.048-.672-.096-.96-.048 0 0-.048.144-.096.096 0 .144-.048.192-.144 0-.096-.048-.144-.144-.24-.096-.048-.144-.192-.048-.384 0-.144.048-.24.144-.288.048 0 .096-.096.096-.24a.367.367 0 00-.096-.24c-.096 0-.096-.048-.096-.144 0-.048.048-.096.192-.192.096 0 .144-.096.192-.24v-.288c.096-.096.096-.288.096-.528a.68.68 0 01-.048-.528 9.234 9.234 0 01.24-1.392c.096-.384.144-.96.144-1.776l.048-.24h.192a.103.103 0 00-.096-.096h-.096c0-.144 0-.24.096-.288.048 0 .096-.096.144-.288v-.384s.096-.048.192-.048h.096c0-.048.048-.096.192-.192.096-.048.192-.144.288-.24 0 0 .096 0 .288-.096a.296.296 0 01.336.048zm.24-16.416c-.336-.048-.768 0-1.248.192-.096.576-.192 1.152-.192 1.728a6.73 6.73 0 00-.048 1.68c0 .576.048 1.056.144 1.44.048.48.144.816.336 1.008.096.192.144.288.24.336 0 .096.144.096.336.096.24 0 .48-.096.72-.288.432-.384.768-.912 1.056-1.584.24-.624.384-1.248.384-1.824 0-.864-.096-1.488-.288-1.92-.24-.384-.72-.672-1.44-.864z"/>
</svg>
